<?xml version="1.0" encoding="utf-8"?>
<!-- Generator: Adobe Illustrator 17.0.0, SVG Export Plug-In . SVG Version: 6.00 Build 0)  -->
<!DOCTYPE svg PUBLIC "-//W3C//DTD SVG 1.1//EN" "http://www.w3.org/Graphics/SVG/1.1/DTD/svg11.dtd">
<svg version="1.1" id="Layer_1" xmlns="http://www.w3.org/2000/svg" xmlns:xlink="http://www.w3.org/1999/xlink" x="0px" y="0px"
	 width="2000px" height="500px" viewBox="0 0 2000 500" enable-background="new 0 0 2000 500" xml:space="preserve">
<g>
	<g>
		<polyline fill="none" stroke="#000000" stroke-width="14" stroke-miterlimit="10" points="0,496.839 -246.839,250 0,3.161 		"/>
	</g>
	<g>
		<polyline fill="none" stroke="#000000" stroke-width="14" stroke-miterlimit="10" points="64.195,496.839 -182.643,250 
			64.195,3.161 		"/>
	</g>
	<g>
		<polyline fill="none" stroke="#000000" stroke-width="14" stroke-miterlimit="10" points="128.391,496.839 -118.448,250 
			128.391,3.161 		"/>
	</g>
	<g>
		<polyline fill="none" stroke="#000000" stroke-width="14" stroke-miterlimit="10" points="192.586,496.839 -54.253,250 
			192.586,3.161 		"/>
	</g>
	<g>
		<polyline fill="none" stroke="#000000" stroke-width="14" stroke-miterlimit="10" points="256.782,496.839 9.943,250 
			256.782,3.161 		"/>
	</g>
	<g>
		<polyline fill="none" stroke="#000000" stroke-width="14" stroke-miterlimit="10" points="320.977,496.839 74.138,250 
			320.977,3.161 		"/>
	</g>
	<g>
		<polyline fill="none" stroke="#000000" stroke-width="14" stroke-miterlimit="10" points="385.172,496.839 138.334,250 
			385.172,3.161 		"/>
	</g>
	<g>
		<polyline fill="none" stroke="#000000" stroke-width="14" stroke-miterlimit="10" points="449.368,496.839 202.529,250 
			449.368,3.161 		"/>
	</g>
	<g>
		<polyline fill="none" stroke="#000000" stroke-width="14" stroke-miterlimit="10" points="513.563,496.839 266.724,250 
			513.563,3.161 		"/>
	</g>
	<g>
		<polyline fill="none" stroke="#000000" stroke-width="14" stroke-miterlimit="10" points="577.759,496.839 330.92,250 
			577.759,3.161 		"/>
	</g>
	<g>
		<polyline fill="none" stroke="#000000" stroke-width="14" stroke-miterlimit="10" points="641.954,496.839 395.115,250 
			641.954,3.161 		"/>
	</g>
	<g>
		<polyline fill="none" stroke="#000000" stroke-width="14" stroke-miterlimit="10" points="706.149,496.839 459.311,250 
			706.149,3.161 		"/>
	</g>
	<g>
		<polyline fill="none" stroke="#000000" stroke-width="14" stroke-miterlimit="10" points="770.345,496.839 523.506,250 
			770.345,3.161 		"/>
	</g>
	<g>
		<polyline fill="none" stroke="#000000" stroke-width="14" stroke-miterlimit="10" points="834.54,496.839 587.701,250 
			834.54,3.161 		"/>
	</g>
	<g>
		<polyline fill="none" stroke="#000000" stroke-width="14" stroke-miterlimit="10" points="898.736,496.839 651.897,250 
			898.736,3.161 		"/>
	</g>
	<g>
		<polyline fill="none" stroke="#000000" stroke-width="14" stroke-miterlimit="10" points="962.931,496.839 716.092,250 
			962.931,3.161 		"/>
	</g>
	<g>
		<polyline fill="none" stroke="#000000" stroke-width="14" stroke-miterlimit="10" points="1027.126,496.839 780.288,250 
			1027.126,3.161 		"/>
	</g>
	<g>
		<polyline fill="none" stroke="#000000" stroke-width="14" stroke-miterlimit="10" points="1091.322,496.839 844.483,250 
			1091.322,3.161 		"/>
	</g>
	<g>
		<polyline fill="none" stroke="#000000" stroke-width="14" stroke-miterlimit="10" points="1155.517,496.839 908.678,250 
			1155.517,3.161 		"/>
	</g>
	<g>
		<polyline fill="none" stroke="#000000" stroke-width="14" stroke-miterlimit="10" points="1219.713,496.839 972.874,250 
			1219.713,3.161 		"/>
	</g>
	<g>
		<polyline fill="none" stroke="#000000" stroke-width="14" stroke-miterlimit="10" points="1283.908,496.839 1037.069,250 
			1283.908,3.161 		"/>
	</g>
	<g>
		<polyline fill="none" stroke="#000000" stroke-width="14" stroke-miterlimit="10" points="1348.103,496.839 1101.265,250 
			1348.103,3.161 		"/>
	</g>
	<g>
		<polyline fill="none" stroke="#000000" stroke-width="14" stroke-miterlimit="10" points="1412.299,496.839 1165.46,250 
			1412.299,3.161 		"/>
	</g>
	<g>
		<polyline fill="none" stroke="#000000" stroke-width="14" stroke-miterlimit="10" points="1476.494,496.839 1229.655,250 
			1476.494,3.161 		"/>
	</g>
	<g>
		<polyline fill="none" stroke="#000000" stroke-width="14" stroke-miterlimit="10" points="1540.689,496.839 1293.851,250 
			1540.689,3.161 		"/>
	</g>
	<g>
		<polyline fill="none" stroke="#000000" stroke-width="14" stroke-miterlimit="10" points="1604.885,496.839 1358.046,250 
			1604.885,3.161 		"/>
	</g>
	<g>
		<polyline fill="none" stroke="#000000" stroke-width="14" stroke-miterlimit="10" points="1669.08,496.839 1422.241,250 
			1669.08,3.161 		"/>
	</g>
	<g>
		<polyline fill="none" stroke="#000000" stroke-width="14" stroke-miterlimit="10" points="1733.276,496.839 1486.437,250 
			1733.276,3.161 		"/>
	</g>
	<g>
		<polyline fill="none" stroke="#000000" stroke-width="14" stroke-miterlimit="10" points="1797.471,496.839 1550.632,250 
			1797.471,3.161 		"/>
	</g>
	<g>
		<polyline fill="none" stroke="#000000" stroke-width="14" stroke-miterlimit="10" points="1861.667,496.839 1614.828,250 
			1861.667,3.161 		"/>
	</g>
	<g>
		<polyline fill="none" stroke="#000000" stroke-width="14" stroke-miterlimit="10" points="1925.862,496.839 1679.023,250 
			1925.862,3.161 		"/>
	</g>
	<g>
		<polyline fill="none" stroke="#000000" stroke-width="14" stroke-miterlimit="10" points="1990.057,496.839 1743.219,250 
			1990.057,3.161 		"/>
	</g>
	<g>
		<polyline fill="none" stroke="#000000" stroke-width="14" stroke-miterlimit="10" points="2054.253,496.839 1807.414,250 
			2054.253,3.161 		"/>
	</g>
	<g>
		<polyline fill="none" stroke="#000000" stroke-width="14" stroke-miterlimit="10" points="2118.448,496.839 1871.609,250 
			2118.448,3.161 		"/>
	</g>
	<g>
		<polyline fill="none" stroke="#000000" stroke-width="14" stroke-miterlimit="10" points="2182.644,496.839 1935.805,250 
			2182.644,3.161 		"/>
	</g>
	<g>
		<polyline fill="none" stroke="#000000" stroke-width="14" stroke-miterlimit="10" points="2246.839,496.839 2000,250 
			2246.839,3.161 		"/>
	</g>
</g>
<line fill="none" stroke="#000000" stroke-width="14" stroke-miterlimit="10" x1="-246.839" y1="250" x2="2099.917" y2="250"/>
</svg>
